<svg class="bi bi-filetype-ascii" fill="currentColor" height="16" width="16" xmlns="http://www.w3.org/2000/svg"><path d="M14 4.5V11h-1V4.5h-2A1.5 1.5 0 019.5 3V1H4a1 1 0 00-1 1v9H2V2a2 2 0 012-2h5.5zM2.404 14.903l-.313 1.028h-.8l1.342-3.999h.926l1.335 4h-.84l-.314-1.03H2.404zm1.178-.59l-.49-1.616h-.034l-.49 1.617h1.014zm1.782.977a1.178 1.178 0 01-.111-.449h.764a.58.58 0 00.255.384c.07.049.154.087.25.114.095.028.2.041.319.041.164 0 .3-.023.413-.07a.558.558 0 00.255-.193.507.507 0 00.085-.29.387.387 0 00-.153-.326c-.101-.08-.256-.144-.463-.193l-.618-.143a1.72 1.72 0 01-.54-.214 1.002 1.002 0 01-.35-.367 1.068 1.068 0 01-.123-.524c0-.244.063-.457.19-.639.127-.181.303-.322.527-.422.225-.1.484-.149.777-.149.304 0 .564.05.779.152.217.102.384.239.5.41.12.17.186.359.2.566h-.75a.56.56 0 00-.12-.258.623.623 0 00-.246-.181.923.923 0 00-.37-.068c-.216 0-.387.05-.512.152a.472.472 0 00-.184.384c0 .121.047.22.143.3a.97.97 0 00.404.175l.62.143c.218.05.407.12.567.211.16.09.285.21.375.358.09.148.135.335.135.56 0 .247-.063.466-.188.656-.133.196-.32.348-.54.439-.233.105-.52.158-.857.158a2.191 2.191 0 01-.665-.09 1.404 1.404 0 01-.478-.252 1.131 1.131 0 01-.29-.375zm4.383-2.246a1.732 1.732 0 00-.103.633v.495c0 .246.035.455.103.627a.834.834 0 00.299.393c.142.09.308.136.477.13a.872.872 0 00.402-.087.699.699 0 00.272-.248.8.8 0 00.117-.364h.765v.076c-.01.241-.088.475-.226.674-.136.194-.32.345-.55.454a1.81 1.81 0 01-.785.164c-.36 0-.665-.072-.915-.216a1.424 1.424 0 01-.57-.627c-.13-.272-.194-.597-.194-.976v-.498c0-.38.065-.705.196-.978.13-.274.32-.485.57-.633.253-.15.557-.223.913-.223.218 0 .42.032.606.097.187.062.35.153.49.272.283.241.452.591.465.964v.073h-.765a.85.85 0 00-.12-.38.7.7 0 00-.272-.261.802.802 0 00-.4-.097.814.814 0 00-.473.138.868.868 0 00-.302.398zm3.628-1.106v4h-.79v-4h.79zm1.337.005v3.999h-.791v-4h.79z" fill-rule="evenodd"/></svg>