<svg class="bi bi-filetype-map" fill="currentColor" height="16" width="16" xmlns="http://www.w3.org/2000/svg"><path d="M14 4.5V14a2 2 0 01-2 2v-1a1 1 0 001-1V4.5h-2A1.5 1.5 0 019.5 3V1H4a1 1 0 00-1 1v9H2V2a2 2 0 012-2h5.5zM.706 15.849v-2.66h.038l.952 2.16h.516l.946-2.16h.038v2.66h.715V11.85h-.8l-1.14 2.596h-.026L.805 11.85H0v3.999zm7.31-3.999h1.6c.289 0 .533.06.732.179.201.117.355.276.46.477.106.201.158.427.158.677 0 .25-.053.476-.16.677-.106.199-.26.357-.464.474a1.46 1.46 0 01-.732.173h-.803v1.342h-.79V11.85zm2.06 1.714a.795.795 0 00.085-.381c0-.226-.062-.4-.185-.521-.123-.122-.294-.182-.513-.182h-.659v1.406h.66a.794.794 0 00.374-.082.574.574 0 00.238-.24zm-5.12 2.306l.313-1.028h1.336l.314 1.028h.84l-1.336-3.999h-.925l-1.329 3.96m1.79-3.195l.488 1.617H5.433l.49-1.617z" fill-rule="evenodd"/></svg>